<?xml version="1.0" encoding="UTF-8" standalone="no"?>
<svg
   width="32px"
   height="32px"
   viewBox="0 0 32 32"
   version="1.1"
   xmlns="http://www.w3.org/2000/svg"
   xmlns:svg="http://www.w3.org/2000/svg">
  <rect
     fill="#777777"
     x="0"
     y="0"
     width="32"
     height="32"
     rx="3"
     style="fill-rule:evenodd;stroke:none;stroke-width:1" />
  <path
     d="M 18.274597,3.4965218 H 8.878289 c -0.03723,0 -0.06949,0.014892 -0.104238,0.019856 H 7.16829 c -0.30775,0 -0.555936,0.2481858 -0.555936,0.5559358 V 29.131615 c 0,0.307753 0.248186,0.555937 0.555936,0.555937 h 5.435265 c 0.307751,0 0.555936,-0.248184 0.555936,-0.555937 v -7.961794 h 5.115106 c 4.921521,0 8.924756,-3.963525 8.924756,-8.835409 0.0025,-4.8718836 -4.003235,-8.8378902 -8.924756,-8.8378902 z M 17.847718,15.960405 c -0.08686,0.0074 -0.17373,0.01489 -0.263077,0.01489 h -4.330839 c -0.01241,0 -0.02234,-0.0099 -0.03475,-0.01489 a 0.12731923,0.12731923 0 0 1 -0.05957,-0.02482 0.14320311,0.14320311 0 0 1 -0.05212,-0.10672 V 8.8374769 c 0,-0.044674 0.02234,-0.07942 0.05212,-0.1067199 0.01489,-0.014892 0.03475,-0.017374 0.0546,-0.022338 0.01489,-0.00496 0.02234,-0.014892 0.03723,-0.014892 h 4.330839 c 0.09927,0 0.198549,0.00745 0.295341,0.014892 1.799346,0.1563567 3.218968,1.722409 3.218968,3.625992 0.0025,1.913511 -1.432031,3.487008 -3.24875,3.625992 z"
     fill="#edd300"
     style="fill-rule:evenodd;stroke:none;stroke-width:0.248186" />
</svg>
